<svg width="124" height="40" viewBox="0 0 124 40" fill="none" xmlns="http://www.w3.org/2000/svg">
<path d="M122.251 15.6694C122.724 15.9547 123.338 15.8027 123.624 15.3298C123.909 14.8569 123.757 14.2423 123.284 13.957L122.251 15.6694ZM7.30305 19.0854L6.7154 18.2762L7.30305 19.0854ZM6.5483 35.1221L6.92525 34.1958L6.5483 35.1221ZM112.61 25.0215L112.026 24.2096L111.993 24.2333L111.962 24.2596L112.61 25.0215ZM97.9768 0.878957C97.4587 0.687831 96.8837 0.952944 96.6926 1.4711C96.5014 1.98926 96.7665 2.56425 97.2847 2.75538L97.9768 0.878957ZM6.7154 18.2762C3.81523 20.3826 1.22277 23.6912 0.559377 27.0716C0.222458 28.7885 0.379858 30.5574 1.29628 32.1623C2.20997 33.7623 3.81524 35.0895 6.17136 36.0483L6.92525 34.1958C4.86861 33.3589 3.67002 32.2859 3.03306 31.1705C2.39884 30.0598 2.2588 28.7977 2.52194 27.4568C3.05868 24.7217 5.25635 21.8078 7.8907 19.8945L6.7154 18.2762ZM113.193 25.8334C116.115 23.7326 117.275 21.1903 117.004 18.4842C116.743 15.8817 115.175 13.3238 113.113 11.042C108.976 6.46488 102.402 2.51135 97.9768 0.878957L97.2847 2.75538C101.455 4.2937 107.741 8.08119 111.629 12.383C113.579 14.5406 114.816 16.7067 115.014 18.6835C115.201 20.5568 114.474 22.4493 112.026 24.2096L113.193 25.8334ZM6.17136 36.0483C8.06223 36.8178 10.9064 37.419 14.3968 37.8749C17.9075 38.3335 22.1427 38.6535 26.8569 38.833C36.2864 39.1919 47.678 38.9899 59.1093 38.1931C70.5383 37.3966 82.0323 36.0038 91.6604 33.9741C96.4742 32.9592 100.839 31.7815 104.505 30.432C108.157 29.0875 111.18 27.5493 113.257 25.7834L111.962 24.2596C110.145 25.8044 107.374 27.2446 103.814 28.5551C100.268 29.8607 96.0028 31.0147 91.2479 32.0171C81.7385 34.0218 70.3419 35.4054 58.9702 36.198C47.6009 36.9904 36.2817 37.1902 26.933 36.8344C22.2582 36.6565 18.0875 36.34 14.6559 35.8918C11.2039 35.4409 8.56931 34.8649 6.92525 34.1958L6.17136 36.0483ZM123.284 13.957C116.626 9.93944 107.171 7.38073 96.5295 5.98383C85.8681 4.5843 73.927 4.34 62.2311 5.00995C50.5347 5.67994 39.058 7.26574 29.3234 9.53796C19.6215 11.8026 11.5374 14.7741 6.7154 18.2762L7.8907 19.8945C12.378 16.6354 20.1386 13.7356 29.778 11.4856C39.3848 9.24322 50.746 7.67111 62.3455 7.00668C73.9454 6.34222 85.7579 6.58699 96.2692 7.96682C106.801 9.34928 115.938 11.8602 122.251 15.6694L123.284 13.957Z" fill="#DD2C5E"/>
</svg>