<svg width="288" height="71" viewBox="0 0 288 71" fill="none" xmlns="http://www.w3.org/2000/svg">
<path d="M284.806 32.7848C285.515 33.2128 286.437 32.9848 286.865 32.2755C287.293 31.5662 287.065 30.6443 286.356 30.2162L284.806 32.7848ZM17.0811 26L16.3495 24.6905L17.0811 26ZM13.0811 58.5L13.6617 57.1169L13.0811 58.5ZM260.581 51L259.855 49.6873L259.805 49.7152L259.757 49.7469L260.581 51ZM229.62 0.599982C228.846 0.302594 227.979 0.688323 227.681 1.46153C227.384 2.23474 227.769 3.10263 228.543 3.40002L229.62 0.599982ZM16.3495 24.6905C9.46381 28.5377 3.10121 34.8283 1.12619 41.4882C0.121441 44.8764 0.246147 48.4057 2.08796 51.6746C3.9124 54.9125 7.31556 57.7067 12.5006 59.8831L13.6617 57.1169C8.85999 55.1014 6.0942 52.6734 4.70163 50.2019C3.32644 47.7612 3.18607 45.0939 4.00239 42.3412C5.66949 36.7195 11.2936 30.9519 17.8128 27.3095L16.3495 24.6905ZM261.307 52.3127C268.144 48.5326 271.113 43.6816 270.869 38.2663C270.634 33.0513 267.419 27.7491 263.001 22.9103C254.125 13.1881 239.539 4.41495 229.62 0.599982L228.543 3.40002C238.124 7.08505 252.287 15.6241 260.786 24.933C265.056 29.6099 267.685 34.2529 267.872 38.4013C268.049 42.3493 266.018 46.2796 259.855 49.6873L261.307 52.3127ZM12.5006 59.8831C16.6669 61.6319 23.0816 63.1868 31.0953 64.5386C39.1375 65.8953 48.887 67.0627 59.78 68.0047C81.5674 69.8889 107.99 70.8767 134.593 70.6619C161.193 70.4471 188.008 69.0298 210.571 66.0951C221.853 64.6278 232.096 62.7781 240.731 60.5013C249.343 58.2306 256.455 55.5097 261.405 52.2531L259.757 49.7469C255.207 52.7403 248.459 55.3611 239.966 57.6005C231.496 59.8339 221.388 61.663 210.184 63.1201C187.779 66.0342 161.094 67.4478 134.569 67.662C108.047 67.8762 81.7198 66.8909 60.0385 65.0159C49.1971 64.0783 39.5325 62.9195 31.5943 61.5804C23.6275 60.2365 17.4953 58.7261 13.6617 57.1169L12.5006 59.8831ZM286.356 30.2162C271.617 21.3219 250.186 14.9893 225.751 10.8531C201.285 6.71168 173.678 4.75161 146.496 4.67668C119.313 4.60174 92.521 6.41194 69.6809 9.82453C46.8895 13.2298 27.8711 18.2531 16.3495 24.6905L17.8128 27.3095C28.8387 21.149 47.4067 16.1859 70.1242 12.7916C92.793 9.40461 119.432 7.60208 146.488 7.67667C173.544 7.75126 200.981 9.70298 225.25 13.811C249.55 17.9244 270.545 24.1789 284.806 32.7848L286.356 30.2162Z" fill="#DD2C5E"/>
</svg>
