<svg width="256" height="15" viewBox="0 0 256 15" fill="none" xmlns="http://www.w3.org/2000/svg">
<path d="M0.999988 1.36555C0.447703 1.36555 -6.55651e-06 1.81327 0 2.36556C6.49691e-06 2.91784 0.447727 3.36555 1.00001 3.36555L0.999988 1.36555ZM255 2.36491L255.147 3.35403C255.658 3.27803 256.027 2.82524 255.998 2.30938C255.97 1.79352 255.553 1.38444 255.037 1.36558L255 2.36491ZM53.4695 8.8L53.5035 7.80058L53.4695 8.8ZM161.301 14.9961C161.851 15.045 162.337 14.6388 162.386 14.0886C162.435 13.5385 162.028 13.0529 161.478 13.0039L161.301 14.9961ZM1.00001 3.36555C66.6367 3.36477 170.915 0.294 254.964 3.36425L255.037 1.36558C170.944 -1.70625 66.537 1.36477 0.999988 1.36555L1.00001 3.36555ZM53.4354 9.79942C91.6352 11.1008 102.905 9.79929 161.301 14.9961L161.478 13.0039C103.01 7.80071 91.623 9.09921 53.5035 7.80058L53.4354 9.79942ZM254.853 1.37579C248.075 2.38382 227.337 3.13275 201.126 3.72382C174.957 4.31395 143.433 4.74571 115.158 5.13178C86.8904 5.51776 61.8605 5.85816 48.6959 6.26567C45.406 6.36752 42.8439 6.47392 41.154 6.58711C40.3164 6.64321 39.6622 6.70287 39.235 6.76928C39.0514 6.79781 38.8013 6.84224 38.599 6.92993C38.541 6.95507 38.4441 7.00154 38.343 7.0799C38.2532 7.1495 38.0592 7.32159 37.9745 7.62337C37.8739 7.98228 37.9861 8.30051 38.1321 8.50253C38.2549 8.6724 38.3999 8.76472 38.4684 8.8046C38.6121 8.88819 38.7582 8.93114 38.8383 8.95284C38.9361 8.97935 39.0426 9.00138 39.1499 9.02043C39.3655 9.05871 39.6394 9.09447 39.9642 9.12893C40.6169 9.19818 41.5342 9.26825 42.725 9.33991C45.1098 9.48342 48.6369 9.63594 53.4354 9.79942L53.5035 7.80058C48.7096 7.63726 45.2034 7.48543 42.8451 7.34352C41.6644 7.27246 40.7826 7.20454 40.1753 7.1401C39.8701 7.10772 39.6487 7.07771 39.4995 7.05122C39.4244 7.0379 39.3811 7.0278 39.3613 7.02244C39.3237 7.01226 39.3843 7.02358 39.474 7.07578C39.5156 7.09997 39.6415 7.17665 39.753 7.33095C39.8878 7.5174 39.9966 7.82011 39.9002 8.16357C39.8199 8.44989 39.638 8.60658 39.568 8.66083C39.4867 8.72386 39.4173 8.75504 39.3944 8.76496C39.3326 8.79174 39.3451 8.77617 39.5421 8.74555C39.8759 8.69367 40.4545 8.63845 41.2877 8.58264C42.9394 8.472 45.471 8.36646 48.7578 8.26472C61.9003 7.85789 86.9068 7.51772 115.186 7.1316C143.458 6.74556 174.991 6.31368 201.171 5.72331C227.309 5.13389 248.212 4.38549 255.147 3.35403L254.853 1.37579Z" fill="#DD2C5E"/>
</svg>
